**ABCDEFGHIJKLMNOPQRSTUVWXYZabcdefghijklmnopqrstuvwxyz**************************
**PARASOLID !"#$%&'()*+,-./:;<=>?@[\]^_`{|}~0123456789**************************
**PART1;
MC=AMD64;
MC_MODEL=Intel64 Family 6 Model 94 Stepping 3, GenuineIntel;
MC_ID=unknown;
OS=Windows_NT;
OS_RELEASE=unknown;
FRU=Parasolid Version 28.0, build 224,  7-29-2016;
APPL=SOLIDWORKS 2016-2016286;
SITE=;
USER=unknown;
FORMAT=text;
GUISE=transmit;
KEY=Car charging nut;
FILE=Car charging nut.x_t;
DATE=Thu Aug 22 10:45:56 2019;
**PART2;
SCH=SCH_2800224_28002;
USFLD_SIZE=0;
**PART3;
**END_OF_HEADER*****************************************************************
T51 : TRANSMIT FILE created by modeller version 280022423 SCH_2800224_28002_1300
6200 0 12 30 CCCCCCCCCCCCCDI5 owner1040 0 CCCCCCCCCA13 boundary_mesh1006 0 A16 i
ndex_map_offset0 0 1 dA9 index_map82 0 A17 node_id_index_map82 0 A20 schema_embe
dding_map82 0 A5 child12 0 A14 lowest_node_id0 0 1 dZ1 1090 2 3 0 0 0 0 1e3 1e-8
 0 4 0 1 0 1 1 5 6 7 8 9 10 11 0 0 0 0 0 0 0 81 255 2 2 873 12 1 0 0 0 0 13 0 70
 11 CI9 list_type0 0 1 uI10 notransmit0 0 1 lCCCDCCDI12 finger_index0 0 1 dI12 f
inger_block1012 0 CZ3 0 4 T1 0 0 3 20 1 14 14 13 255 5 654 0 1 0 15 0 0 16 0 51
 255 6 621 0 17 18 0 0 -0 .005 0 0 -1 0 .0185 0 0 -1 30 255 7 653 0 10 19 0 0 +-
.00285 .005 -.01827915479446465 0 -1 0 29 255 8 462 0 20 21 0 .00285 0 -.0182791
5479446465 19 8 CCCCCCCA5 owner12 0 Z9 196 0 1 16 0 22 V0 16 255 10 525 0 ?23 0
 24 7 0 0 1 18 255 11 193 0 25 0 26 27 ?1 17 255 25 0 28 29 30 11 31 32 0 33 +18
 26 190 0 30 11 34 35 ?1 29 27 195 0 11 35 36 .00285 .005 -.01827915479446465 29
 35 192 0 26 37 27 .00285 .005 -.01665795605709175 29 36 493 0 38 27 39 -.00285
 0 -.01827915479446465 18 38 428 0 40 41 0 36 ?1 29 39 492 0 41 36 42 -.00285 0
 -.01665795605709175 18 41 427 0 43 44 38 39 ?1 29 42 491 0 44 39 45 -.009763699
36229545 0 -.01379420801505876 18 44 426 0 46 47 41 42 ?1 29 45 490 0 47 42 48 -
.0109100599831429 0 -.0149405686359062 18 47 425 0 49 50 44 45 ?1 29 48 489 0 50
 45 51 -.0149405686359062 0 -.01091005998314288 18 50 424 0 52 53 47 48 ?1 29 51
 488 0 53 48 54 -.01379420801505876 0 -.00976369936229545 18 53 423 0 55 56 50 5
1 ?1 29 54 487 0 56 51 57 -.01665795605709175 0 -.00285 18 56 422 0 58 59 53 54
 ?1 29 57 486 0 59 54 60 -.01827915479446465 0 -.00285 18 59 421 0 61 62 56 57 ?
1 29 60 485 0 62 57 63 -.01827915479446465 0 .00285 18 62 420 0 64 65 59 60 ?1 2
9 63 484 0 65 60 66 -.01665795605709175 0 .00285 18 65 419 0 67 68 62 63 ?1 29 6
6 483 0 68 63 69 -.01379420801505876 0 .00976369936229545 18 68 418 0 70 71 65 6
6 ?1 29 69 482 0 71 66 72 -.0149405686359062 0 .0109100599831429 18 71 417 0 73
 74 68 69 ?1 29 72 481 0 74 69 75 -.0109100599831429 0 .0149405686359062 18 74 4
16 0 76 77 71 72 ?1 29 75 480 0 77 72 78 -.00976369936229545 0 .0137942080150587
6 18 77 415 0 79 80 74 75 ?1 29 78 479 0 80 75 81 -.00285 0 .01665795605709175 1
8 80 414 0 82 83 77 78 ?1 29 81 478 0 83 78 84 -.00285 0 .01827915479446465 18 8
3 413 0 85 86 80 81 ?1 29 84 477 0 86 81 87 .00285 0 .01827915479446465 18 86 41
2 0 88 89 83 84 ?1 29 87 476 0 89 84 90 .00285 0 .01665795605709175 18 89 411 0
 91 92 86 87 ?1 29 90 475 0 92 87 93 .00976369936229544 0 .01379420801505876 18
 92 410 0 94 95 89 90 ?1 29 93 474 0 95 90 96 .0109100599831429 0 .0149405686359
062 18 95 409 0 97 98 92 93 ?1 29 96 473 0 98 93 99 .0149405686359062 0 .0109100
599831429 18 98 408 0 100 101 95 96 ?1 29 99 472 0 101 96 102 .01379420801505876
 0 .00976369936229544 18 101 407 0 103 104 98 99 ?1 29 102 471 0 104 99 105 .016
65795605709175 0 .00285 18 104 406 0 106 107 101 102 ?1 29 105 470 0 107 102 108
 .01827915479446465 0 .00285 18 107 405 0 109 110 104 105 ?1 29 108 469 0 110 10
5 111 .01827915479446465 0 -.00285 18 110 404 0 112 113 107 108 ?1 29 111 468 0
 113 108 114 .01665795605709175 0 -.00285 18 113 403 0 115 116 110 111 ?1 29 114
 467 0 116 111 117 .01379420801505876 0 -.00976369936229544 18 116 402 0 118 119
 113 114 ?1 29 117 466 0 119 114 120 .0149405686359062 0 -.0109100599831429 18 1
19 401 0 121 122 116 117 ?1 29 120 465 0 122 117 123 .0109100599831429 0 -.01494
05686359062 18 122 400 0 124 125 119 120 ?1 29 123 464 0 125 120 21 .00976369936
229544 0 -.01379420801505876 18 125 399 0 126 127 122 123 ?1 29 21 463 0 127 123
 8 .00285 0 -.01665795605709175 18 127 398 0 128 20 125 21 ?1 17 128 0 129 130 1
31 127 132 133 0 134 +18 20 397 0 135 136 127 8 ?1 17 135 0 137 33 134 20 138 13
9 0 140 +18 136 100 0 141 142 20 143 ?1 17 141 0 144 23 145 136 146 147 0 29 -18
 142 103 0 146 148 136 149 ?1 29 143 102 0 136 0 149 -.00285 .005 -.018279154794
46465 29 149 105 0 142 143 150 -.00285 .005 -.01665795605709175 29 150 108 0 148
 149 151 -.00976369936229545 .005 -.01379420801505876 18 148 106 0 152 153 142 1
50 ?1 29 151 111 0 153 150 154 -.0109100599831429 .005 -.0149405686359062 18 153
 109 0 155 156 148 151 ?1 29 154 114 0 156 151 157 -.0149405686359062 .005 -.010
91005998314288 18 156 112 0 158 159 153 154 ?1 29 157 117 0 159 154 160 -.013794
20801505876 .005 -.00976369936229545 18 159 115 0 161 162 156 157 ?1 29 160 120
 0 162 157 163 -.01665795605709175 .005 -.00285 18 162 118 0 164 165 159 160 ?1
 29 163 123 0 165 160 166 -.01827915479446465 .005 -.00285 18 165 121 0 167 168
 162 163 ?1 29 166 126 0 168 163 169 -.01827915479446465 .005 .00285 18 168 124
 0 170 171 165 166 ?1 29 169 129 0 171 166 172 -.01665795605709175 .005 .00285 1
8 171 127 0 173 174 168 169 ?1 29 172 132 0 174 169 175 -.01379420801505876 .005
 .00976369936229545 18 174 130 0 176 177 171 172 ?1 29 175 135 0 177 172 178 -.0
149405686359062 .005 .0109100599831429 18 177 133 0 179 180 174 175 ?1 29 178 13
8 0 180 175 181 -.0109100599831429 .005 .0149405686359062 18 180 136 0 182 183 1
77 178 ?1 29 181 141 0 183 178 184 -.00976369936229545 .005 .01379420801505876 1
8 183 139 0 185 186 180 181 ?1 29 184 144 0 186 181 187 -.00285 .005 .0166579560
5709175 18 186 142 0 188 189 183 184 ?1 29 187 147 0 189 184 190 -.00285 .005 .0
1827915479446465 18 189 145 0 191 192 186 187 ?1 29 190 150 0 192 187 193 .00285
 .005 .01827915479446465 18 192 148 0 194 195 189 190 ?1 29 193 153 0 195 190 19
6 .00285 .005 .01665795605709175 18 195 151 0 197 198 192 193 ?1 29 196 156 0 19
8 193 199 .00976369936229544 .005 .01379420801505876 18 198 154 0 200 201 195 19
6 ?1 29 199 159 0 201 196 202 .0109100599831429 .005 .0149405686359062 18 201 15
7 0 203 204 198 199 ?1 29 202 162 0 204 199 205 .0149405686359062 .005 .01091005
99831429 18 204 160 0 206 207 201 202 ?1 29 205 165 0 207 202 208 .0137942080150
5876 .005 .00976369936229544 18 207 163 0 209 210 204 205 ?1 29 208 168 0 210 20
5 211 .01665795605709175 .005 .00285 18 210 166 0 212 213 207 208 ?1 29 211 171
 0 213 208 214 .01827915479446465 .005 .00285 18 213 169 0 215 216 210 211 ?1 29
 214 174 0 216 211 217 .01827915479446465 .005 -.00285 18 216 172 0 218 219 213
 214 ?1 29 217 177 0 219 214 220 .01665795605709175 .005 -.00285 18 219 175 0 22
1 222 216 217 ?1 29 220 180 0 222 217 223 .01379420801505876 .005 -.009763699362
29544 18 222 178 0 224 225 219 220 ?1 29 223 183 0 225 220 226 .0149405686359062
 .005 -.0109100599831429 18 225 181 0 227 228 222 223 ?1 29 226 186 0 228 223 37
 .0109100599831429 .005 -.0149405686359062 18 228 184 0 229 34 225 226 ?1 29 37
 189 0 34 226 35 .00976369936229544 .005 -.01379420801505876 18 34 187 0 230 26
 228 37 ?1 17 230 0 28 30 229 34 231 232 0 233 +15 255 28 3 0 29 15 234 17 30 0
 28 25 230 26 235 236 0 130 +17 229 0 28 230 227 228 237 238 0 239 +17 231 0 240
 241 233 228 230 232 0 0 -16 232 91 0 ?230 236 238 242 0 0 1 17 233 0 240 231 12
6 34 131 243 0 235 -15 240 530 0 126 244 0 17 126 0 240 233 241 125 245 246 0 13
1 +17 131 0 129 128 235 125 233 243 0 132 +16 243 496 0 ?131 247 248 249 0 0 1 1
7 235 0 129 131 130 34 30 236 0 0 -15 129 528 0 128 250 0 17 130 0 129 235 128 2
6 134 248 0 31 -16 236 94 0 ?30 32 232 251 0 0 1 16 32 97 0 ?25 252 236 253 0 0
 1 31 255 251 95 0 236 242 253 0 +0 .005 0 0 1 0 0 0 1 .0169 30 242 92 0 232 254
 251 0 +.0109100599831429 .005 -.0149405686359062 -.707106781186548 0 .707106781
186548 30 253 98 0 32 251 255 0 +.00285 .005 -.01827915479446465 0 0 -1 31 255 4
61 0 256 253 257 0 +0 0 0 0 1 0 0 0 1 .0185 16 256 393 0 ?258 259 260 255 0 0 1
 30 257 460 0 259 255 261 0 +-.00285 0 -.01827915479446465 0 0 1 16 259 389 0 ?4
3 262 256 257 0 0 1 31 261 459 0 262 257 263 0 +0 0 0 0 1 0 0 0 1 .0169 16 262 3
85 0 ?46 264 259 261 0 0 1 30 263 458 0 264 261 265 0 +-.0109100599831429 0 -.01
49405686359062 -.707106781186548 0 -.707106781186548 16 264 381 0 ?49 266 262 26
3 0 0 1 31 265 457 0 266 263 267 0 +0 0 0 0 1 0 0 0 1 .0185 16 266 377 0 ?52 268
 264 265 0 0 1 30 267 456 0 268 265 269 0 +-.0149405686359062 0 -.01091005998314
288 .707106781186548 0 .707106781186548 16 268 373 0 ?55 270 266 267 0 0 1 31 26
9 455 0 270 267 271 0 +0 0 0 0 1 0 0 0 1 .0169 16 270 369 0 ?58 272 268 269 0 0
 1 30 271 454 0 272 269 273 0 +-.01827915479446465 0 -.00285 -1 0 -2675062958024
32e-30 16 272 365 0 ?61 274 270 271 0 0 1 31 273 453 0 274 271 275 0 +0 0 0 0 1
 0 0 0 1 .0185 16 274 361 0 ?64 276 272 273 0 0 1 30 275 452 0 276 273 277 0 +-.
01827915479446465 0 .00285 1 0 -2675062958024315e-31 16 276 357 0 ?67 278 274 27
5 0 0 1 31 277 451 0 278 275 279 0 +0 0 0 0 1 0 0 0 1 .0169 16 278 353 0 ?70 280
 276 277 0 0 1 30 279 450 0 280 277 281 0 +-.0149405686359062 0 .010910059983142
9 -.707106781186548 0 .707106781186548 16 280 349 0 ?73 282 278 279 0 0 1 31 281
 449 0 282 279 283 0 +0 0 0 0 1 0 0 0 1 .0185 16 282 345 0 ?76 284 280 281 0 0 1
 30 283 448 0 284 281 285 0 +-.0109100599831429 0 .0149405686359062 .70710678118
6548 0 -.707106781186548 16 284 341 0 ?79 286 282 283 0 0 1 31 285 447 0 286 283
 287 0 +0 0 0 0 1 0 0 0 1 .0169 16 286 337 0 ?82 288 284 285 0 0 1 30 287 446 0
 288 285 289 0 +-.00285 0 .01827915479446465 0 0 1 16 288 333 0 ?85 290 286 287
 0 0 1 31 289 445 0 290 287 291 0 +0 0 0 0 1 0 0 0 1 .0185 16 290 329 0 ?88 292
 288 289 0 0 1 30 291 444 0 292 289 293 0 +.00285 0 .01827915479446465 0 0 -1 16
 292 325 0 ?91 294 290 291 0 0 1 31 293 443 0 294 291 295 0 +0 0 0 0 1 0 0 0 1 .
0169 16 294 321 0 ?94 296 292 293 0 0 1 30 295 442 0 296 293 297 0 +.01091005998
31429 0 .0149405686359062 .707106781186548 0 .707106781186548 16 296 317 0 ?97 2
98 294 295 0 0 1 31 297 441 0 298 295 299 0 +0 0 0 0 1 0 0 0 1 .0185 16 298 313
 0 ?100 300 296 297 0 0 1 30 299 440 0 300 297 301 0 +.0149405686359062 0 .01091
00599831429 -.707106781186548 0 -.707106781186548 16 300 309 0 ?103 302 298 299
 0 0 1 31 301 439 0 302 299 303 0 +0 0 0 0 1 0 0 0 1 .0169 16 302 305 0 ?106 304
 300 301 0 0 1 30 303 438 0 304 301 305 0 +.01827915479446465 0 .00285 1 0 -2675
062958024315e-31 16 304 301 0 ?109 306 302 303 0 0 1 31 305 437 0 306 303 307 0
 +0 0 0 0 1 0 0 0 1 .0185 16 306 297 0 ?112 308 304 305 0 0 1 30 307 436 0 308 3
05 309 0 +.01827915479446465 0 -.00285 -1 0 2675062958024315e-31 16 308 293 0 ?1
15 310 306 307 0 0 1 31 309 435 0 310 307 311 0 +0 0 0 0 1 0 0 0 1 .0169 16 310
 289 0 ?118 312 308 309 0 0 1 30 311 434 0 312 309 313 0 +.0149405686359062 0 -.
0109100599831429 .707106781186548 0 -.707106781186548 16 312 285 0 ?121 314 310
 311 0 0 1 31 313 433 0 314 311 315 0 +0 0 0 0 1 0 0 0 1 .0185 16 314 281 0 ?124
 246 312 313 0 0 1 30 315 432 0 246 313 316 0 +.0109100599831429 0 -.01494056863
59062 -.707106781186548 0 .707106781186548 16 246 277 0 ?126 133 314 315 0 0 1 3
1 316 431 0 133 315 317 0 +0 0 0 0 1 0 0 0 1 .0169 16 133 273 0 ?128 139 246 316
 0 0 1 30 317 430 0 139 316 318 0 +.00285 0 -.01827915479446465 0 0 -1 16 139 26
9 0 ?135 319 133 317 0 0 1 30 318 622 0 252 317 320 0 +.00285 .005 -.01827915479
446465 0 -1 0 16 252 494 0 ?140 248 32 318 0 0 1 30 320 623 0 248 318 249 0 +.00
285 .005 -.01665795605709175 0 -1 0 16 248 495 0 ?134 243 252 320 0 0 1 30 249 6
24 0 243 320 321 0 +.00976369936229544 .005 -.01379420801505876 0 -1 0 30 321 62
5 0 247 249 322 0 +.0109100599831429 .005 -.0149405686359062 0 -1 0 16 247 497 0
 ?241 323 243 321 0 0 1 30 322 626 0 323 321 324 0 +.0149405686359062 .005 -.010
9100599831429 0 -1 0 16 323 498 0 ?325 326 247 322 0 0 1 30 324 627 0 326 322 32
7 0 +.01379420801505876 .005 -.00976369936229544 0 -1 0 16 326 499 0 ?328 329 32
3 324 0 0 1 30 327 628 0 329 324 330 0 +.01665795605709175 .005 -.00285 0 -1 0 1
6 329 500 0 ?331 332 326 327 0 0 1 30 330 629 0 332 327 333 0 +.0182791547944646
5 .005 -.00285 0 -1 0 16 332 501 0 ?334 335 329 330 0 0 1 30 333 630 0 335 330 3
36 0 +.01827915479446465 .005 .00285 0 -1 0 16 335 502 0 ?337 338 332 333 0 0 1
 30 336 631 0 338 333 339 0 +.01665795605709175 .005 .00285 0 -1 0 16 338 503 0
 ?340 341 335 336 0 0 1 30 339 632 0 341 336 342 0 +.01379420801505876 .005 .009
76369936229544 0 -1 0 16 341 504 0 ?343 344 338 339 0 0 1 30 342 633 0 344 339 3
45 0 +.0149405686359062 .005 .0109100599831429 0 -1 0 16 344 505 0 ?346 347 341
 342 0 0 1 30 345 634 0 347 342 348 0 +.0109100599831429 .005 .0149405686359062
 0 -1 0 16 347 506 0 ?349 350 344 345 0 0 1 30 348 635 0 350 345 351 0 +.0097636
9936229544 .005 .01379420801505876 0 -1 0 16 350 507 0 ?352 353 347 348 0 0 1 30
 351 636 0 353 348 354 0 +.00285 .005 .01665795605709175 0 -1 0 16 353 508 0 ?35
5 356 350 351 0 0 1 30 354 637 0 356 351 357 0 +.00285 .005 .01827915479446465 0
 -1 0 16 356 509 0 ?358 359 353 354 0 0 1 30 357 638 0 359 354 360 0 +-.00285 .0
05 .01827915479446465 0 -1 0 16 359 510 0 ?361 362 356 357 0 0 1 30 360 639 0 36
2 357 363 0 +-.00285 .005 .01665795605709175 0 -1 0 16 362 511 0 ?364 365 359 36
0 0 0 1 30 363 640 0 365 360 366 0 +-.00976369936229545 .005 .01379420801505876
 0 -1 0 16 365 512 0 ?367 368 362 363 0 0 1 30 366 641 0 368 363 369 0 +-.010910
0599831429 .005 .0149405686359062 0 -1 0 16 368 513 0 ?370 371 365 366 0 0 1 30
 369 642 0 371 366 372 0 +-.0149405686359062 .005 .0109100599831429 0 -1 0 16 37
1 514 0 ?373 374 368 369 0 0 1 30 372 643 0 374 369 375 0 +-.01379420801505876 .
005 .00976369936229545 0 -1 0 16 374 515 0 ?376 377 371 372 0 0 1 30 375 644 0 3
77 372 378 0 +-.01665795605709175 .005 .00285 0 -1 0 16 377 516 0 ?379 380 374 3
75 0 0 1 30 378 645 0 380 375 381 0 +-.01827915479446465 .005 .00285 0 -1 0 16 3
80 517 0 ?382 383 377 378 0 0 1 30 381 646 0 383 378 384 0 +-.01827915479446465
 .005 -.00285 0 -1 0 16 383 518 0 ?385 386 380 381 0 0 1 30 384 647 0 386 381 38
7 0 +-.01665795605709175 .005 -.00285 0 -1 0 16 386 519 0 ?388 389 383 384 0 0 1
 30 387 648 0 389 384 390 0 +-.01379420801505876 .005 -.00976369936229545 0 -1 0
 16 389 520 0 ?391 392 386 387 0 0 1 30 390 649 0 392 387 393 0 +-.0149405686359
062 .005 -.01091005998314288 0 -1 0 16 392 521 0 ?394 395 389 390 0 0 1 30 393 6
50 0 395 390 396 0 +-.0109100599831429 .005 -.0149405686359062 0 -1 0 16 395 522
 0 ?397 398 392 393 0 0 1 30 396 651 0 398 393 19 0 +-.00976369936229545 .005 -.
01379420801505876 0 -1 0 16 398 523 0 ?399 24 395 396 0 0 1 30 19 652 0 24 396 7
 0 +-.00285 .005 -.01665795605709175 0 -1 0 16 24 524 0 ?400 10 398 19 0 0 1 17
 400 0 401 46 402 41 145 24 0 403 +15 401 584 0 46 404 0 17 46 0 401 405 400 44
 403 262 0 399 +17 402 0 401 400 405 142 152 406 0 0 -17 145 0 144 141 43 142 40
0 24 0 402 -17 403 0 407 40 408 41 46 262 0 0 -15 407 268 0 409 410 411 17 40 0
 407 409 403 38 43 259 0 23 -17 408 0 407 403 412 44 49 264 0 0 -17 412 0 407 40
8 413 47 52 266 0 0 -17 49 0 414 415 399 47 408 264 0 397 +15 414 582 0 49 416 0
 17 415 0 414 417 49 153 397 395 0 418 -17 399 0 414 49 417 44 405 398 0 408 +17
 397 0 419 52 418 47 415 395 0 412 +15 419 580 0 52 420 0 17 52 0 419 421 397 50
 412 266 0 394 +17 418 0 419 397 421 153 158 422 0 0 -17 421 0 419 418 52 156 39
4 392 0 423 -17 158 0 28 161 155 156 418 422 0 421 +16 422 16 0 ?158 424 425 426
 0 0 1 16 424 19 0 ?161 427 422 428 0 0 1 16 425 13 0 ?155 422 406 429 0 0 1 31
 426 17 0 422 429 428 0 +0 .005 0 0 1 0 0 0 1 .0185 30 429 14 0 425 430 426 0 +-
.0109100599831429 .005 -.0149405686359062 -.707106781186548 0 -.707106781186548
 30 428 20 0 424 426 431 0 +-.0149405686359062 .005 -.01091005998314288 .7071067
81186548 0 .707106781186548 31 431 23 0 427 428 432 0 +0 .005 0 0 1 0 0 0 1 .016
9 16 427 22 0 ?164 433 424 431 0 0 1 30 432 26 0 433 431 434 0 +-.01827915479446
465 .005 -.00285 -1 0 -267506295802432e-30 16 433 25 0 ?167 435 427 432 0 0 1 31
 434 29 0 435 432 436 0 +0 .005 0 0 1 0 0 0 1 .0185 16 435 28 0 ?170 437 433 434
 0 0 1 30 436 32 0 437 434 438 0 +-.01827915479446465 .005 .00285 1 0 -267506295
8024315e-31 16 437 31 0 ?173 439 435 436 0 0 1 31 438 35 0 439 436 440 0 +0 .005
 0 0 1 0 0 0 1 .0169 16 439 34 0 ?176 441 437 438 0 0 1 30 440 38 0 441 438 442
 0 +-.0149405686359062 .005 .0109100599831429 -.707106781186548 0 .7071067811865
48 16 441 37 0 ?179 443 439 440 0 0 1 31 442 41 0 443 440 444 0 +0 .005 0 0 1 0
 0 0 1 .0185 16 443 40 0 ?182 445 441 442 0 0 1 30 444 44 0 445 442 446 0 +-.010
9100599831429 .005 .0149405686359062 .707106781186548 0 -.707106781186548 16 445
 43 0 ?185 447 443 444 0 0 1 31 446 47 0 447 444 448 0 +0 .005 0 0 1 0 0 0 1 .01
69 16 447 46 0 ?188 449 445 446 0 0 1 30 448 50 0 449 446 450 0 +-.00285 .005 .0
1827915479446465 0 0 1 16 449 49 0 ?191 451 447 448 0 0 1 31 450 53 0 451 448 45
2 0 +0 .005 0 0 1 0 0 0 1 .0185 16 451 52 0 ?194 453 449 450 0 0 1 30 452 56 0 4
53 450 454 0 +.00285 .005 .01827915479446465 0 0 -1 16 453 55 0 ?197 455 451 452
 0 0 1 31 454 59 0 455 452 456 0 +0 .005 0 0 1 0 0 0 1 .0169 16 455 58 0 ?200 45
7 453 454 0 0 1 30 456 62 0 457 454 458 0 +.0109100599831429 .005 .0149405686359
062 .707106781186548 0 .707106781186548 16 457 61 0 ?203 459 455 456 0 0 1 31 45
8 65 0 459 456 460 0 +0 .005 0 0 1 0 0 0 1 .0185 16 459 64 0 ?206 461 457 458 0
 0 1 30 460 68 0 461 458 462 0 +.0149405686359062 .005 .0109100599831429 -.70710
6781186548 0 -.707106781186548 16 461 67 0 ?209 463 459 460 0 0 1 31 462 71 0 46
3 460 464 0 +0 .005 0 0 1 0 0 0 1 .0169 16 463 70 0 ?212 465 461 462 0 0 1 30 46
4 74 0 465 462 466 0 +.01827915479446465 .005 .00285 1 0 -2675062958024315e-31 1
6 465 73 0 ?215 467 463 464 0 0 1 31 466 77 0 467 464 468 0 +0 .005 0 0 1 0 0 0
 1 .0185 16 467 76 0 ?218 469 465 466 0 0 1 30 468 80 0 469 466 470 0 +.01827915
479446465 .005 -.00285 -1 0 2675062958024315e-31 16 469 79 0 ?221 471 467 468 0
 0 1 31 470 83 0 471 468 472 0 +0 .005 0 0 1 0 0 0 1 .0169 16 471 82 0 ?224 473
 469 470 0 0 1 30 472 86 0 473 470 254 0 +.0149405686359062 .005 -.0109100599831
429 .707106781186548 0 -.707106781186548 16 473 85 0 ?227 238 471 472 0 0 1 31 2
54 89 0 238 472 242 0 +0 .005 0 0 1 0 0 0 1 .0185 16 238 88 0 ?229 232 473 254 0
 0 1 17 227 0 28 229 224 225 474 473 0 475 +17 224 0 28 227 221 222 476 471 0 47
7 +17 474 0 478 328 475 222 227 473 0 0 -17 475 0 478 474 121 225 325 323 0 237
 -15 478 534 0 121 479 0 17 121 0 478 475 328 119 480 312 0 325 +17 325 0 481 12
4 237 119 475 323 0 482 +17 237 0 481 325 239 225 229 238 0 0 -15 481 532 0 124
 483 0 17 239 0 481 237 124 228 241 247 0 231 -17 124 0 481 239 325 122 482 314
 0 241 +17 241 0 240 126 231 122 239 247 0 245 +17 245 0 407 482 132 122 126 246
 0 0 -17 482 0 407 480 245 119 124 314 0 0 -17 132 0 407 245 138 125 128 133 0 0
 -17 138 0 407 132 409 127 135 139 0 0 -17 409 0 407 138 40 20 258 256 0 0 -17 2
58 0 484 485 140 38 409 256 0 0 +15 484 588 0 258 17 0 17 485 0 484 486 258 136
 23 10 0 0 -17 140 0 484 258 486 20 33 252 0 409 +17 486 0 484 140 485 11 29 319
 0 0 -17 33 0 137 31 135 11 140 252 0 486 -15 137 526 0 135 487 0 17 31 0 137 13
4 33 26 25 32 0 0 -17 134 0 137 135 31 127 130 248 0 138 +14 255 487 527 488 ?48
9 250 137 5 490 -0 0 489 250 22 81 1 488 1056 491 487 492 0 0 493 494 14 489 742
 493 ?0 487 495 5 496 +0 0 0 487 22 14 250 529 497 ?487 244 129 5 498 -0 0 487 2
44 22 50 255 490 590 0 487 499 498 0 +.00285 .005 -.01827915479446465 -1 0 0 0 0
 1 13 22 197 0 0 0 0 0 0 9 15 14 15 733 500 ?410 0 28 5 501 +0 0 410 0 22 81 1 5
00 1059 491 15 502 0 497 503 504 14 410 727 503 ?17 15 407 5 499 -0 0 17 15 22 5
0 501 2 0 15 496 499 0 +0 .005 0 0 1 0 0 0 1 51 496 755 0 489 0 501 0 -0 .005 0
 0 -1 0 .01375 0 0 -1 50 499 429 0 410 501 490 0 +0 0 0 0 1 0 0 0 1 81 1 503 106
0 491 410 505 0 500 506 507 14 17 589 506 ?508 410 484 5 6 -0 0 508 410 22 81 1
 506 1061 491 17 509 0 503 510 511 14 508 587 510 ?404 17 144 5 18 -0 0 404 17 2
2 81 1 510 1062 491 508 512 0 506 513 514 14 404 585 513 ?416 508 401 5 515 -0 0
 416 508 22 15 144 586 0 43 508 0 50 18 620 0 508 515 6 0 +-.00285 .005 -.018279
15479446465 1 0 0 0 0 -1 51 515 619 0 404 516 18 0 -0 .005 0 0 -1 0 .0169 0 0 -1
 50 516 618 0 416 517 515 0 +-.0109100599831429 .005 -.0149405686359062 -.707106
781186548 0 .707106781186548 .707106781186548 0 .707106781186548 14 416 583 518
 ?420 404 414 5 516 -0 0 420 404 22 51 517 617 0 420 519 516 0 -0 .005 0 0 -1 0
 .0185 0 0 -1 14 420 581 520 ?521 416 419 5 517 -0 0 521 416 22 50 519 616 0 521
 522 517 0 +-.0149405686359062 .005 -.01091005998314288 .707106781186548 0 -.707
106781186548 -.707106781186548 0 -.707106781186548 14 521 579 523 ?524 420 525 5
 519 -0 0 524 420 22 51 522 615 0 524 526 519 0 -0 .005 0 0 -1 0 .0169 0 0 -1 14
 524 577 527 ?528 521 529 5 522 -0 0 528 521 22 50 526 614 0 528 530 522 0 +-.01
827915479446465 .005 -.00285 -2675062958024325e-31 0 1 1 0 2675062958024325e-31
 14 528 575 531 ?532 524 533 5 526 -0 0 532 524 22 51 530 613 0 532 534 526 0 -0
 .005 0 0 -1 0 .0185 0 0 -1 14 532 573 535 ?536 528 537 5 530 -0 0 536 528 22 50
 534 612 0 536 538 530 0 +-.01827915479446465 .005 .00285 -2675062958024315e-31
 0 -1 -1 0 2675062958024315e-31 14 536 571 539 ?540 532 541 5 534 -0 0 540 532 2
2 51 538 611 0 540 542 534 0 -0 .005 0 0 -1 0 .0169 0 0 -1 14 540 569 543 ?544 5
36 545 5 538 -0 0 544 536 22 50 542 610 0 544 546 538 0 +-.0149405686359062 .005
 .0109100599831429 .707106781186548 0 .707106781186548 .707106781186548 0 -.7071
06781186548 14 544 567 547 ?548 540 549 5 542 -0 0 548 540 22 51 546 609 0 548 5
50 542 0 -0 .005 0 0 -1 0 .0185 0 0 -1 14 548 565 551 ?552 544 553 5 546 -0 0 55
2 544 22 50 550 608 0 552 554 546 0 +-.0109100599831429 .005 .0149405686359062 -
.707106781186548 0 -.707106781186548 -.707106781186548 0 .707106781186548 14 552
 563 555 ?556 548 557 5 550 -0 0 556 548 22 51 554 607 0 556 558 550 0 -0 .005 0
 0 -1 0 .0169 0 0 -1 14 556 561 559 ?560 552 561 5 554 -0 0 560 552 22 50 558 60
6 0 560 562 554 0 +-.00285 .005 .01827915479446465 1 0 0 0 0 -1 14 560 559 563 ?
564 556 565 5 558 -0 0 564 556 22 51 562 605 0 564 566 558 0 -0 .005 0 0 -1 0 .0
185 0 0 -1 14 564 557 567 ?568 560 569 5 562 -0 0 568 560 22 50 566 604 0 568 57
0 562 0 +.00285 .005 .01827915479446465 -1 0 0 0 0 1 14 568 555 571 ?572 564 573
 5 566 -0 0 572 564 22 51 570 603 0 572 574 566 0 -0 .005 0 0 -1 0 .0169 0 0 -1
 14 572 553 575 ?576 568 577 5 570 -0 0 576 568 22 50 574 602 0 576 578 570 0 +.
0109100599831429 .005 .0149405686359062 .707106781186548 0 -.707106781186548 -.7
07106781186548 0 -.707106781186548 14 576 551 579 ?580 572 581 5 574 -0 0 580 57
2 22 51 578 601 0 580 582 574 0 -0 .005 0 0 -1 0 .0185 0 0 -1 14 580 549 583 ?58
4 576 585 5 578 -0 0 584 576 22 50 582 600 0 584 586 578 0 +.0149405686359062 .0
05 .0109100599831429 -.707106781186548 0 .707106781186548 .707106781186548 0 .70
7106781186548 14 584 547 587 ?588 580 589 5 582 -0 0 588 580 22 51 586 599 0 588
 590 582 0 -0 .005 0 0 -1 0 .0169 0 0 -1 14 588 545 591 ?592 584 593 5 586 -0 0
 592 584 22 50 590 598 0 592 594 586 0 +.01827915479446465 .005 .00285 -26750629
58024315e-31 0 -1 -1 0 2675062958024315e-31 14 592 543 595 ?596 588 597 5 590 -0
 0 596 588 22 51 594 597 0 596 598 590 0 -0 .005 0 0 -1 0 .0185 0 0 -1 14 596 54
1 599 ?600 592 601 5 594 -0 0 600 592 22 50 598 596 0 600 602 594 0 +.0182791547
9446465 .005 -.00285 2675062958024315e-31 0 1 1 0 -2675062958024315e-31 14 600 5
39 603 ?604 596 605 5 598 -0 0 604 596 22 51 602 595 0 604 606 598 0 -0 .005 0 0
 -1 0 .0169 0 0 -1 14 604 537 607 ?479 600 608 5 602 -0 0 479 600 22 50 606 594
 0 479 609 602 0 +.0149405686359062 .005 -.0109100599831429 -.707106781186548 0
 -.707106781186548 -.707106781186548 0 .707106781186548 14 479 535 610 ?483 604
 478 5 606 -0 0 483 604 22 51 609 593 0 483 611 606 0 -0 .005 0 0 -1 0 .0185 0 0
 -1 14 483 533 612 ?244 479 481 5 609 -0 0 244 479 22 50 611 592 0 244 498 609 0
 +.0109100599831429 .005 -.0149405686359062 .707106781186548 0 .707106781186548
 .707106781186548 0 -.707106781186548 14 244 531 613 ?250 483 240 5 611 -0 0 250
 483 22 51 498 591 0 250 490 611 0 -0 .005 0 0 -1 0 .0169 0 0 -1 81 1 613 1090 4
91 244 614 0 612 0 615 80 255 1 491 616 617 9000 1 1 1 1 1 1 1 1 0 FFFFTFTFFFFFF
F1 81 1 614 980 618 244 0 613 619 620 621 81 1 612 1089 491 483 619 0 610 613 62
2 82 255 1 615 -29228910 81 1 619 979 618 483 0 612 623 614 624 81 1 610 1088 49
1 479 623 0 607 612 625 82 1 622 -28966766 81 1 623 978 618 479 0 610 626 619 62
7 81 1 607 1087 491 604 626 0 603 610 628 82 1 625 -28704622 81 1 626 977 618 60
4 0 607 629 623 630 81 1 603 1086 491 600 629 0 599 607 631 82 1 628 -28442478 8
1 1 629 976 618 600 0 603 632 626 633 81 1 599 1085 491 596 632 0 595 603 634 82
 1 631 -28180334 81 1 632 975 618 596 0 599 635 629 636 81 1 595 1084 491 592 63
5 0 591 599 637 82 1 634 -27918190 81 1 635 974 618 592 0 595 638 632 639 81 1 5
91 1083 491 588 638 0 587 595 640 82 1 637 -27656046 81 1 638 973 618 588 0 591
 641 635 642 81 1 587 1082 491 584 641 0 583 591 643 82 1 640 -27393902 81 1 641
 972 618 584 0 587 644 638 645 81 1 583 1081 491 580 644 0 579 587 646 82 1 643
 -27131758 81 1 644 971 618 580 0 583 647 641 648 81 1 579 1080 491 576 647 0 57
5 583 649 82 1 646 -26869614 81 1 647 970 618 576 0 579 650 644 651 81 1 575 107
9 491 572 650 0 571 579 652 82 1 649 -26607470 81 1 650 969 618 572 0 575 653 64
7 654 81 1 571 1078 491 568 653 0 567 575 655 82 1 652 -26345326 81 1 653 968 61
8 568 0 571 656 650 657 81 1 567 1077 491 564 656 0 563 571 658 82 1 655 -260831
82 81 1 656 967 618 564 0 567 659 653 660 81 1 563 1076 491 560 659 0 559 567 66
1 82 1 658 -25821038 81 1 659 966 618 560 0 563 662 656 663 81 1 559 1075 491 55
6 662 0 555 563 664 82 1 661 -25558894 81 1 662 965 618 556 0 559 665 659 666 81
 1 555 1074 491 552 665 0 551 559 667 82 1 664 -25296750 81 1 665 964 618 552 0
 555 668 662 669 81 1 551 1073 491 548 668 0 547 555 670 82 1 667 -25034606 81 1
 668 963 618 548 0 551 671 665 672 81 1 547 1072 491 544 671 0 543 551 673 82 1
 670 -24772462 81 1 671 962 618 544 0 547 674 668 675 81 1 543 1071 491 540 674
 0 539 547 676 82 1 673 -24510318 81 1 674 961 618 540 0 543 677 671 678 81 1 53
9 1070 491 536 677 0 535 543 679 82 1 676 -24248174 81 1 677 960 618 536 0 539 6
80 674 681 81 1 535 1069 491 532 680 0 531 539 682 82 1 679 -23986030 81 1 680 9
59 618 532 0 535 683 677 684 81 1 531 1068 491 528 683 0 527 535 685 82 1 682 -2
3723886 81 1 683 958 618 528 0 531 686 680 687 81 1 527 1067 491 524 686 0 523 5
31 688 82 1 685 -23461742 81 1 686 957 618 524 0 527 689 683 690 81 1 523 1066 4
91 521 689 0 520 527 691 82 1 688 -23199598 81 1 689 956 618 521 0 523 692 686 6
93 81 1 520 1065 491 420 692 0 518 523 694 82 1 691 -22937454 81 1 692 955 618 4
20 0 520 695 689 696 81 1 518 1064 491 416 695 0 513 520 697 82 1 694 -22675310
 81 1 695 954 618 416 0 518 698 692 699 81 1 513 1063 491 404 698 0 510 518 700
 82 1 697 -22413166 81 1 698 953 618 404 0 513 512 695 701 82 1 700 -22151022 80
 1 618 0 702 8001 0 0 0 0 3 5 0 0 0 FFFFTFTFFFFFFF2 81 1 512 952 618 508 0 510 5
09 698 703 83 255 3 701 .525490196078431 .525490196078431 .525490196078431 81 1
 509 951 618 17 0 506 505 512 704 83 3 703 .525490196078431 .525490196078431 .52
5490196078431 81 1 505 950 618 410 0 503 502 509 705 83 3 704 .525490196078431 .
525490196078431 .525490196078431 81 1 502 949 618 15 0 500 0 505 706 83 3 705 .5
25490196078431 .525490196078431 .525490196078431 83 3 706 .525490196078431 .5254
90196078431 .525490196078431 79 255 15 702 SDL/TYSA_COLOUR83 3 699 .525490196078
431 .525490196078431 .525490196078431 83 3 696 .525490196078431 .525490196078431
 .525490196078431 83 3 693 .525490196078431 .525490196078431 .525490196078431 83
 3 690 .525490196078431 .525490196078431 .525490196078431 83 3 687 .525490196078
431 .525490196078431 .525490196078431 83 3 684 .525490196078431 .525490196078431
 .525490196078431 83 3 681 .525490196078431 .525490196078431 .525490196078431 83
 3 678 .525490196078431 .525490196078431 .525490196078431 83 3 675 .525490196078
431 .525490196078431 .525490196078431 83 3 672 .525490196078431 .525490196078431
 .525490196078431 83 3 669 .525490196078431 .525490196078431 .525490196078431 83
 3 666 .525490196078431 .525490196078431 .525490196078431 83 3 663 .525490196078
431 .525490196078431 .525490196078431 83 3 660 .525490196078431 .525490196078431
 .525490196078431 83 3 657 .525490196078431 .525490196078431 .525490196078431 83
 3 654 .525490196078431 .525490196078431 .525490196078431 83 3 651 .525490196078
431 .525490196078431 .525490196078431 83 3 648 .525490196078431 .525490196078431
 .525490196078431 83 3 645 .525490196078431 .525490196078431 .525490196078431 83
 3 642 .525490196078431 .525490196078431 .525490196078431 83 3 639 .525490196078
431 .525490196078431 .525490196078431 83 3 636 .525490196078431 .525490196078431
 .525490196078431 83 3 633 .525490196078431 .525490196078431 .525490196078431 83
 3 630 .525490196078431 .525490196078431 .525490196078431 83 3 627 .525490196078
431 .525490196078431 .525490196078431 83 3 624 .525490196078431 .525490196078431
 .525490196078431 81 1 620 981 618 250 0 497 614 492 707 83 3 621 .5254901960784
31 .525490196078431 .525490196078431 81 1 497 1058 491 250 620 0 493 500 708 81
 1 492 982 618 487 0 488 620 709 710 83 3 707 .525490196078431 .525490196078431
 .525490196078431 81 1 709 983 618 489 0 493 492 0 711 83 3 710 .525490196078431
 .525490196078431 .525490196078431 81 1 493 1057 491 489 709 0 488 497 712 83 3
 711 .525490196078431 .525490196078431 .525490196078431 82 1 712 -91357038 82 1
 708 -29491054 79 14 617 SWEntUnchanged15 608 536 0 118 604 0 17 118 0 608 477 3
31 116 713 310 0 328 +17 477 0 608 476 118 222 328 326 0 474 -17 331 0 608 118 4
76 113 714 329 0 713 +17 713 0 407 715 480 113 118 310 0 0 -17 328 0 478 121 474
 116 477 326 0 480 +17 480 0 407 713 482 116 121 312 0 0 -17 715 0 407 716 713 1
10 115 308 0 0 -17 716 0 407 717 715 107 112 306 0 0 -17 115 0 605 714 334 113 7
15 308 0 331 +15 605 538 0 115 600 0 17 714 0 605 718 115 219 331 329 0 476 -17
 334 0 605 115 718 110 719 332 0 715 +17 718 0 605 334 714 216 221 469 0 0 -17 7
19 0 601 720 112 216 334 332 0 718 -15 601 540 0 112 596 0 17 720 0 601 337 719
 213 218 467 0 0 -17 112 0 601 719 337 110 716 306 0 334 +17 337 0 601 112 720 1
07 721 335 0 716 +17 721 0 597 722 109 213 337 335 0 720 -15 597 542 0 109 592 0
 17 722 0 597 340 721 210 215 465 0 0 -17 109 0 597 721 340 107 717 304 0 337 +1
7 340 0 597 109 722 104 723 338 0 717 +17 717 0 407 724 716 104 109 304 0 0 -17
 724 0 407 725 717 101 106 302 0 0 -17 725 0 407 726 724 98 103 300 0 0 -17 106
 0 593 723 343 104 724 302 0 340 +15 593 544 0 106 588 0 17 723 0 593 727 106 21
0 340 338 0 722 -17 343 0 593 106 727 101 728 341 0 724 +17 727 0 593 343 723 20
7 212 463 0 0 -17 728 0 589 729 103 207 343 341 0 727 -15 589 546 0 103 584 0 17
 729 0 589 346 728 204 209 461 0 0 -17 103 0 589 728 346 101 725 300 0 343 +17 3
46 0 589 103 729 98 730 344 0 725 +17 730 0 585 731 100 204 346 344 0 729 -15 58
5 548 0 100 580 0 17 731 0 585 349 730 201 206 459 0 0 -17 100 0 585 730 349 98
 726 298 0 346 +17 349 0 585 100 731 95 732 347 0 726 +17 726 0 407 733 725 95 1
00 298 0 0 -17 733 0 407 734 726 92 97 296 0 0 -17 734 0 407 735 733 89 94 294 0
 0 -17 97 0 581 732 352 95 733 296 0 349 +15 581 550 0 97 576 0 17 732 0 581 736
 97 201 349 347 0 731 -17 352 0 581 97 736 92 737 350 0 733 +17 736 0 581 352 73
2 198 203 457 0 0 -17 737 0 577 738 94 198 352 350 0 736 -15 577 552 0 94 572 0
 17 738 0 577 355 737 195 200 455 0 0 -17 94 0 577 737 355 92 734 294 0 352 +17
 355 0 577 94 738 89 739 353 0 734 +17 739 0 573 740 91 195 355 353 0 738 -15 57
3 554 0 91 568 0 17 740 0 573 358 739 192 197 453 0 0 -17 91 0 573 739 358 89 73
5 292 0 355 +17 358 0 573 91 740 86 741 356 0 735 +17 735 0 407 742 734 86 91 29
2 0 0 -17 742 0 407 743 735 83 88 290 0 0 -17 743 0 407 744 742 80 85 288 0 0 -1
7 88 0 569 741 361 86 742 290 0 358 +15 569 556 0 88 564 0 17 741 0 569 745 88 1
92 358 356 0 740 -17 361 0 569 88 745 83 746 359 0 742 +17 745 0 569 361 741 189
 194 451 0 0 -17 746 0 565 747 85 189 361 359 0 745 -15 565 558 0 85 560 0 17 74
7 0 565 364 746 186 191 449 0 0 -17 85 0 565 746 364 83 743 288 0 361 +17 364 0
 565 85 747 80 748 362 0 743 +17 748 0 561 749 82 186 364 362 0 747 -15 561 560
 0 82 556 0 17 749 0 561 367 748 183 188 447 0 0 -17 82 0 561 748 367 80 744 286
 0 364 +17 367 0 561 82 749 77 750 365 0 744 +17 744 0 407 751 743 77 82 286 0 0
 -17 751 0 407 752 744 74 79 284 0 0 -17 752 0 407 753 751 71 76 282 0 0 -17 79
 0 557 750 370 77 751 284 0 367 +15 557 562 0 79 552 0 17 750 0 557 754 79 183 3
67 365 0 749 -17 370 0 557 79 754 74 755 368 0 751 +17 754 0 557 370 750 180 185
 445 0 0 -17 755 0 553 756 76 180 370 368 0 754 -15 553 564 0 76 548 0 17 756 0
 553 373 755 177 182 443 0 0 -17 76 0 553 755 373 74 752 282 0 370 +17 373 0 553
 76 756 71 757 371 0 752 +17 757 0 549 758 73 177 373 371 0 756 -15 549 566 0 73
 544 0 17 758 0 549 376 757 174 179 441 0 0 -17 73 0 549 757 376 71 753 280 0 37
3 +17 376 0 549 73 758 68 759 374 0 753 +17 753 0 407 760 752 68 73 280 0 0 -17
 760 0 407 761 753 65 70 278 0 0 -17 761 0 407 762 760 62 67 276 0 0 -17 70 0 54
5 759 379 68 760 278 0 376 +15 545 568 0 70 540 0 17 759 0 545 763 70 174 376 37
4 0 758 -17 379 0 545 70 763 65 764 377 0 760 +17 763 0 545 379 759 171 176 439
 0 0 -17 764 0 541 765 67 171 379 377 0 763 -15 541 570 0 67 536 0 17 765 0 541
 382 764 168 173 437 0 0 -17 67 0 541 764 382 65 761 276 0 379 +17 382 0 541 67
 765 62 766 380 0 761 +17 766 0 537 767 64 168 382 380 0 765 -15 537 572 0 64 53
2 0 17 767 0 537 385 766 165 170 435 0 0 -17 64 0 537 766 385 62 762 274 0 382 +
17 385 0 537 64 767 59 768 383 0 762 +17 762 0 407 769 761 59 64 274 0 0 -17 769
 0 407 770 762 56 61 272 0 0 -17 770 0 407 413 769 53 58 270 0 0 -17 61 0 533 76
8 388 59 769 272 0 385 +15 533 574 0 61 528 0 17 768 0 533 771 61 165 385 383 0
 767 -17 388 0 533 61 771 56 772 386 0 769 +17 771 0 533 388 768 162 167 433 0 0
 -17 772 0 529 773 58 162 388 386 0 771 -15 529 576 0 58 524 0 17 773 0 529 391
 772 159 164 427 0 0 -17 58 0 529 772 391 56 770 270 0 388 +17 391 0 529 58 773
 53 774 389 0 770 +17 774 0 525 423 55 159 391 389 0 773 -15 525 578 0 55 521 0
 17 423 0 525 394 774 156 161 424 0 0 -17 55 0 525 774 394 53 413 268 0 391 +17
 394 0 525 55 423 50 421 392 0 413 +17 413 0 407 412 770 50 55 268 0 0 -17 161 0
 28 164 158 159 423 424 0 774 +17 164 0 28 167 161 162 773 427 0 772 +17 167 0 2
8 170 164 165 771 433 0 768 +17 170 0 28 173 167 168 767 435 0 766 +17 173 0 28
 176 170 171 765 437 0 764 +17 176 0 28 179 173 174 763 439 0 759 +17 179 0 28 1
82 176 177 758 441 0 757 +17 182 0 28 185 179 180 756 443 0 755 +17 185 0 28 188
 182 183 754 445 0 750 +17 188 0 28 191 185 186 749 447 0 748 +17 191 0 28 194 1
88 189 747 449 0 746 +17 194 0 28 197 191 192 745 451 0 741 +17 197 0 28 200 194
 195 740 453 0 739 +17 200 0 28 203 197 198 738 455 0 737 +17 203 0 28 206 200 2
01 736 457 0 732 +17 206 0 28 209 203 204 731 459 0 730 +17 209 0 28 212 206 207
 729 461 0 728 +17 212 0 28 215 209 210 727 463 0 723 +17 215 0 28 218 212 213 7
22 465 0 721 +17 218 0 28 221 215 216 720 467 0 719 +17 221 0 28 224 218 219 718
 469 0 714 +17 476 0 608 331 477 219 224 471 0 0 -17 43 0 144 145 23 41 40 259 0
 400 +17 23 0 144 43 141 38 485 10 0 258 +82 1 514 -21888878 82 1 511 -21626734
 82 1 507 -11861870 82 1 504 -11337582 15 495 745 0 775 489 776 17 775 0 495 775
 775 0 777 260 0 0 +15 776 746 0 778 489 0 17 778 0 776 778 778 0 779 780 0 0 -1
7 779 0 411 779 779 0 778 780 0 0 +16 780 736 0 ?779 260 0 781 0 0 1 16 260 739
 0 ?775 256 780 782 0 0 1 31 781 758 0 780 782 783 0 +0 0 0 0 1 0 0 0 1 .01375 3
1 782 759 0 260 0 781 0 +0 .005 0 0 1 0 0 0 1 .01375 31 783 5 0 319 781 784 0 +0
 .005 0 0 1 0 0 0 1 .0185 16 319 4 0 ?29 147 139 783 0 0 1 30 784 8 0 147 783 43
0 0 +-.00285 .005 -.01827915479446465 0 0 1 16 147 7 0 ?146 406 319 784 0 0 1 31
 430 11 0 406 784 429 0 +0 .005 0 0 1 0 0 0 1 .0169 16 406 10 0 ?152 425 147 430
 0 0 1 17 152 0 28 155 146 148 402 406 0 405 +17 155 0 28 158 152 153 417 425 0
 415 +17 146 0 28 152 29 142 141 147 0 145 +17 405 0 401 402 46 148 399 398 0 41
7 -17 417 0 414 399 415 148 155 425 0 0 -17 29 0 28 146 25 136 486 319 0 485 +15
 411 725 0 779 410 0 17 777 0 234 777 777 0 775 260 0 0 -15 234 730 0 777 15 0 8
2 1 494 -29753198 19 16 655 0 1 0 9 5 S0 74 4 CI16 index_map_offset0 0 1 dCCZ20
 14 3 0 0 613 2 709 0 0 0 0 0 0 0 0 0 0 0 0 0 0 0 0 0 80 2 12 785 786 8004 0 0 0
 0 3 5 0 0 0 FFTFFFFFFFFFFT2 3 83 1 13 78e2 79 16 786 SDL/TYSA_DENSITY1 0 
